<?xml version="1.0" encoding="UTF-8" standalone="no"?>
<!-- Created with Inkscape (http://www.inkscape.org/) -->

<svg
   xmlns:dc="http://purl.org/dc/elements/1.1/"
   xmlns:cc="http://creativecommons.org/ns#"
   xmlns:rdf="http://www.w3.org/1999/02/22-rdf-syntax-ns#"
   xmlns:svg="http://www.w3.org/2000/svg"
   xmlns="http://www.w3.org/2000/svg"
   xmlns:sodipodi="http://sodipodi.sourceforge.net/DTD/sodipodi-0.dtd"
   xmlns:inkscape="http://www.inkscape.org/namespaces/inkscape"
   width="112.88889mm"
   height="112.88889mm"
   viewBox="0 0 399.99999 399.99999"
   id="svg2"
   version="1.1"
   inkscape:version="0.91 r13725"
   sodipodi:docname="icon.svg"
   inkscape:export-filename="C:\Users\Alejandro\Documents\www\wordpress\wp-content\plugins\woo-license-keys-ninja-forms\assets\wordpress\icon-128x128.png"
   inkscape:export-xdpi="28.799999"
   inkscape:export-ydpi="28.799999">
  <defs
     id="defs4" />
  <sodipodi:namedview
     id="base"
     pagecolor="#ffffff"
     bordercolor="#666666"
     borderopacity="1.0"
     inkscape:pageopacity="0.0"
     inkscape:pageshadow="2"
     inkscape:zoom="0.35"
     inkscape:cx="-1175.739"
     inkscape:cy="152.85503"
     inkscape:document-units="px"
     inkscape:current-layer="layer4"
     showgrid="false"
     fit-margin-top="0"
     fit-margin-left="0"
     fit-margin-right="0"
     fit-margin-bottom="0"
     inkscape:window-width="1920"
     inkscape:window-height="1017"
     inkscape:window-x="-8"
     inkscape:window-y="-8"
     inkscape:window-maximized="1">
    <inkscape:grid
       type="xygrid"
       id="grid4686" />
  </sodipodi:namedview>
  <metadata
     id="metadata7">
    <rdf:RDF>
      <cc:Work
         rdf:about="">
        <dc:format>image/svg+xml</dc:format>
        <dc:type
           rdf:resource="http://purl.org/dc/dcmitype/StillImage" />
        <dc:title></dc:title>
      </cc:Work>
    </rdf:RDF>
  </metadata>
  <g
     inkscape:label="Backgrounds"
     inkscape:groupmode="layer"
     id="layer1"
     transform="translate(0,-652.36218)"
     sodipodi:insensitive="true">
    <rect
       style="opacity:1;fill:#f7f7f7;fill-opacity:1;fill-rule:evenodd;stroke:none;stroke-width:4;stroke-linecap:round;stroke-linejoin:miter;stroke-miterlimit:4;stroke-dasharray:none;stroke-dashoffset:0;stroke-opacity:1"
       id="rect4684"
       width="400"
       height="400"
       x="0"
       y="652.36218" />
    <path
       style="fill:#ded7d7;fill-opacity:1;fill-rule:evenodd;stroke:none;stroke-width:1px;stroke-linecap:butt;stroke-linejoin:miter;stroke-opacity:1"
       d="m 10,1042.3622 0,-380.00002 380,0 z"
       id="path4688"
       inkscape:connector-curvature="0" />
    <path
       style="fill:#f04749;fill-opacity:1;fill-rule:evenodd;stroke:none;stroke-width:1px;stroke-linecap:butt;stroke-linejoin:miter;stroke-opacity:1"
       d="m 10,1042.3622 380,-380.00002 0,380.00002 z"
       id="path4690"
       inkscape:connector-curvature="0" />
  </g>
  <g
     inkscape:groupmode="layer"
     id="layer2"
     inkscape:label="Woo License Keys"
     sodipodi:insensitive="true">
    <g
       id="g5347"
       transform="matrix(0.49636075,0,0,0.49636075,130.3995,45.040347)">
      <path
         inkscape:connector-curvature="0"
         d="m 119.26059,230.95405 14.13143,-38.77442 c 9.51293,-26.10204 -3.98976,-55.06977 -30.07999,-64.57839 l -23.66457,-8.6246 c -26.090221,-9.50863 -55.065462,3.97794 -64.578406,30.07997 L 0.93764861,187.83104 c -8.54842071,1.53567 -16.07992361,7.34251 -19.26239461,16.07474 l -21.561503,59.16148 c -4.760779,13.06285 1.977134,27.5284 15.039982,32.28919 l 94.658371,34.49841 c 13.062848,4.76078 27.528408,-1.97713 32.289196,-15.03998 l 21.5615,-59.16146 c 3.18248,-8.73223 1.15348,-18.02342 -4.40221,-24.69937 z m -66.501657,35.35719 -9.819109,26.94212 -23.664586,-8.62459 9.819109,-26.94213 c -5.555692,-6.67595 -7.584681,-15.96713 -4.40221,-24.69935 4.760788,-13.06287 19.226341,-19.80077 32.289189,-15.03998 13.062867,4.76077 19.80078,19.22633 15.039992,32.28919 -3.182471,8.73222 -10.713974,14.53907 -19.262385,16.07474 z m 44.03158,-47.25933 -70.993764,-25.8738 12.9369,-35.4969 c 4.756472,-13.05101 19.22635,-19.80077 32.289207,-15.03998 l 23.664583,8.6246 c 13.062841,4.76078 19.796451,19.23817 15.039981,32.2892 l -12.936907,35.49688 z"
         id="path4227"
         style="display:inline" />
      <g
         transform="matrix(0.49184341,-0.51954638,0.51954638,0.49184341,-229.90927,261.326)"
         id="g4206"
         style="display:inline">
        <g
           transform="matrix(1.1450499,0.07027563,-0.07027563,1.1450499,-5.0601753,-41.822263)"
           id="g4166">
          <path
             style="fill:#f0c829"
             inkscape:connector-curvature="0"
             d="m 279.806,235.505 c -0.136,-1.772 -0.928,-3.476 -2.227,-4.747 L 165.336,118.515 c 4.416,-10.403 6.747,-21.669 6.747,-33.312 0,-22.754 -8.875,-44.163 -24.938,-60.266 C 131.059,8.866 109.665,0 86.898,0 64.12,0 42.763,8.869 26.651,24.95 c -33.243,33.225 -33.25,87.266 -0.005,120.488 16.111,16.115 37.475,24.99 60.241,24.99 11.646,0 22.884,-2.35 33.312,-6.772 l 36.874,36.902 c 1.534,1.515 3.557,2.319 5.74,2.248 l 20.095,-0.705 -0.656,20.145 c -0.062,2.125 0.705,4.193 2.245,5.706 1.484,1.512 3.569,2.334 5.685,2.248 l 20.169,-0.689 -0.724,20.123 c -0.063,2.127 0.754,4.199 2.238,5.712 1.534,1.512 3.321,2.325 5.74,2.251 l 20.119,-0.684 -0.674,20.126 c -0.118,2.232 0.822,4.379 2.418,5.903 1.472,1.339 3.309,2.06 5.245,2.06 0.278,0 0.563,-0.012 0.847,-0.037 l 30.851,-3.426 c 4.169,-0.455 7.205,-4.175 6.847,-8.353 l -3.452,-37.681 z M 76.607,74.915 c -9.476,9.466 -24.796,9.466 -34.252,0 -9.47,-9.469 -9.47,-24.786 0,-34.246 9.456,-9.46 24.771,-9.469 34.252,-0.003 9.457,9.459 9.451,24.786 0,34.249 z m 176.864,163.16 c -1.126,1.126 -2.635,1.688 -4.101,1.688 -1.466,0 -2.976,-0.563 -4.101,-1.688 l -95.501,-95.529 c 2.659,-2.867 5.077,-5.885 7.273,-9.058 l 96.429,96.41 c 2.252,2.252 2.252,5.926 0.001,8.177 z"
             id="path4168" />
        </g>
        <g
           id="g4170" />
        <g
           id="g4172" />
        <g
           id="g4174" />
        <g
           id="g4176" />
        <g
           id="g4178" />
        <g
           id="g4180" />
        <g
           id="g4182" />
        <g
           id="g4184" />
        <g
           id="g4186" />
        <g
           id="g4188" />
        <g
           id="g4190" />
        <g
           id="g4192" />
        <g
           id="g4194" />
        <g
           id="g4196" />
        <g
           id="g4198" />
      </g>
    </g>
    <g
       id="g4"
       transform="matrix(0.80560146,0,0,0.80560146,19.285715,14.142862)">
      <path
         style="fill:#9b5c8f"
         inkscape:connector-curvature="0"
         d="M 23.758664,0 232.13744,0 C 245.32464,0 256,10.675357 256,23.862562 l 0,79.541868 c 0,13.18721 -10.67536,23.86257 -23.86256,23.86257 l -74.7275,0 10.25672,25.11848 -45.10862,-25.11848 -98.694715,0 C 10.67612,127.267 7.6303846e-4,116.59164 7.6303846e-4,103.40443 l 0,-79.541868 C -0.10389732,10.780017 10.571459,0 23.758664,0 l 0,0 z"
         id="path6" />
      <path
         style="fill:#ffffff"
         inkscape:connector-curvature="0"
         d="m 14.578199,21.749593 c 1.456911,-1.977235 3.642277,-3.017886 6.556098,-3.226016 5.307317,-0.41626 8.325203,2.081301 9.053658,7.492683 3.226017,21.749594 6.764228,40.169106 10.51057,55.258537 L 63.488768,37.879675 c 2.081301,-3.954472 4.682927,-6.035773 7.804878,-6.243903 4.578862,-0.312195 7.388618,2.601626 8.533334,8.741464 2.601626,13.84065 5.931707,25.6 9.886179,35.590244 2.705691,-26.432521 7.284553,-45.476423 13.736581,-57.235773 1.56098,-2.913821 3.85041,-4.370731 6.8683,-4.578861 2.39349,-0.208131 4.57886,0.520325 6.55609,2.0813 1.97724,1.560976 3.01789,3.538212 3.22602,5.931708 0.10407,1.87317 -0.20813,3.434146 -1.04065,4.995122 -4.05854,7.492682 -7.38862,20.084552 -10.09431,37.567479 -2.60163,16.962602 -3.53821,30.178862 -2.91382,39.648785 0.20813,2.60162 -0.20813,4.89105 -1.24878,6.86829 -1.24878,2.28943 -3.12195,3.53821 -5.515448,3.74634 C 96.581451,115.2 93.771695,113.95122 91.066004,111.14146 81.387956,101.25529 73.687142,86.478049 68.06763,66.809756 61.303403,80.130081 56.308281,90.120325 53.082264,96.780488 46.942427,108.53984 41.739175,114.57561 37.368443,114.88781 34.558687,115.09593 32.165191,112.70244 30.08389,107.70732 24.776573,94.074797 19.052996,67.746341 12.913159,28.721951 c -0.41626,-2.705691 0.20813,-5.099187 1.66504,-6.972358 z M 238.21397,38.087805 c -3.74634,-6.556098 -9.26179,-10.510569 -16.65041,-12.071545 -1.97723,-0.41626 -3.8504,-0.62439 -5.61951,-0.62439 -9.99024,0 -18.10731,5.203252 -24.45528,15.609756 -5.41138,8.845529 -8.11708,18.627642 -8.11708,29.346341 0,8.013009 1.66505,14.881301 4.99513,20.604878 3.74634,6.556098 9.26179,10.510565 16.6504,12.071545 1.97724,0.41626 3.85041,0.62439 5.61952,0.62439 10.0943,0 18.21138,-5.203252 24.45528,-15.609756 5.41138,-8.949593 8.11707,-18.731707 8.11707,-29.450406 0.10407,-8.117073 -1.66504,-14.881301 -4.99512,-20.500813 z m -13.11219,28.826016 c -1.45691,6.868293 -4.05854,11.96748 -7.90895,15.401626 -3.01788,2.705691 -5.82764,3.850407 -8.42927,3.330081 -2.49756,-0.520325 -4.57886,-2.705691 -6.13983,-6.764227 -1.24878,-3.226016 -1.87317,-6.452033 -1.87317,-9.469919 0,-2.601626 0.20813,-5.203252 0.72845,-7.596748 0.93659,-4.266667 2.70569,-8.429268 5.51545,-12.38374 3.43415,-5.099187 7.07642,-7.180488 10.82276,-6.452032 2.49756,0.520325 4.57887,2.705691 6.13984,6.764227 1.24878,3.226017 1.87317,6.452033 1.87317,9.469919 0,2.705691 -0.20813,5.307317 -0.72845,7.700813 z M 173.06926,38.087805 C 169.32291,31.531707 163.7034,27.577236 156.41885,26.01626 154.44161,25.6 152.56844,25.39187 150.79934,25.39187 c -9.99025,0 -18.10732,5.203252 -24.45529,15.609756 -5.41138,8.845529 -8.11707,18.627642 -8.11707,29.346341 0,8.013009 1.66504,14.881301 4.99512,20.604878 3.74634,6.556098 9.26179,10.510565 16.65041,12.071545 1.97723,0.41626 3.8504,0.62439 5.61951,0.62439 10.09431,0 18.21138,-5.203252 24.45528,-15.609756 5.41139,-8.949593 8.11708,-18.731707 8.11708,-29.450406 0,-8.117073 -1.66504,-14.881301 -4.99512,-20.500813 z M 159.853,66.913821 c -1.45691,6.868293 -4.05854,11.96748 -7.90895,15.401626 -3.01788,2.705691 -5.82764,3.850407 -8.42927,3.330081 -2.49756,-0.520325 -4.57886,-2.705691 -6.13983,-6.764227 -1.24878,-3.226016 -1.87317,-6.452033 -1.87317,-9.469919 0,-2.601626 0.20813,-5.203252 0.72845,-7.596748 0.93659,-4.266667 2.70569,-8.429268 5.51545,-12.38374 3.43414,-5.099187 7.07642,-7.180488 10.82276,-6.452032 2.49756,0.520325 4.57886,2.705691 6.13984,6.764227 1.24878,3.226017 1.87317,6.452033 1.87317,9.469919 0.10407,2.705691 -0.20813,5.307317 -0.72845,7.700813 l 0,0 0,0 z"
         id="path8" />
    </g>
  </g>
  <g
     inkscape:groupmode="layer"
     id="layer3"
     inkscape:label="Ninja Forms"
     sodipodi:insensitive="true">
    <g
       transform="matrix(0.21808746,0,0,0.21808746,173.06273,244.07549)"
       id="g6018">
      <path
         id="path5370"
         d="m -115.3644,667.42289 -148.94409,0.38278 c -2.35715,-14.10264 -1.08791,-28.20529 -0.50366,-42.30793 q 0.18132,-7.11177 0.38278,-14.10265 c 2.23628,-4.4927 -0.44322,-9.56965 1.67217,-14.10265 0.12088,-2.01466 0.22162,-4.02932 0.3425,-6.04399 2.27657,-3.06229 0,-6.89015 1.67217,-10.07332 4.57328,-43.75849 16.47995,-85.64335 32.6174,-126.4 3.14288,-7.91763 6.66854,-15.69423 10.07332,-23.51112 1.45056,-2.29672 2.23628,-4.93593 3.66669,-7.25279 16.43966,-36.80791 38.74198,-70.00957 63.01868,-102.00243 16.64112,-21.95984 36.546,-40.87753 56.188974,-59.97655 27.60089,-26.83532 58.82819,-48.95633 92.0701403,-68.2971 A 518.89679,518.89679 0 0 1 179.03842,128.92341 c 119.93294,-18.69608 233.47938,0.42308 340.17597,58.52598 a 496.79593,496.79593 0 0 1 113.48596,84.23309 c 4.8554,4.85534 7.3939,5.05681 12.088,-0.82601 53.5901,-66.66522 119.933,-115.48052 201.829,-141.77189 29.9984,-9.60994 60.44,-17.68874 92.4328,-17.30596 10.3151,0.12088 20.1467,2.01467 25.9086,12.08798 a 29.132038,29.132038 0 0 1 0,11.80593 137.13816,137.13816 0 0 1 -30.0991,46.33727 c -17.4268,18.31329 -34.6119,36.96908 -54.3959,52.7439 -7.1521,5.68135 -6.044,9.16672 0.7051,13.82059 27.1577,18.99828 53.7513,38.76213 79.4584,59.67434 11.1813,9.08614 16.7418,13.43782 -2.2162,23.22908 a 11.080651,11.080651 0 0 1 -6.044,1.79305 c -42.4489,12.08798 -86.1268,18.45432 -128.9384,28.50749 a 11.906663,11.906663 0 0 1 -6.044,1.71247 c -21.0533,4.63372 -41.9856,9.71068 -62.4546,16.33892 a 10.919477,10.919477 0 0 1 -6.044,1.79305 c -23.0679,5.78209 -22.7858,5.64106 -13.8407,25.38476 17.1045,37.57348 33.4635,75.44916 42.9123,115.74244 3.3443,14.10264 6.3865,28.20529 9.5697,42.30793 1.4102,2.49819 0.5641,5.45974 1.6923,8.05866 0.1209,2.01466 0.2619,4.02933 0.3828,6.04399 1.2088,3.24361 0.4633,6.78942 1.6318,10.07332 l 0.5238,8.17953 c 1.4909,3.86816 -0.8058,8.21983 1.4909,12.08799 0.1209,4.02932 0.2619,8.05865 0.3828,12.08798 a 310.70144,310.70144 0 0 1 -0.141,46.33726 l -151.3416,-0.32234 c -3.1429,-2.57877 -3.6465,-6.14473 -4.0293,-9.91215 -7.696,-68.49856 -41.28046,-120.01352 -102.12331,-153.11444 a 539.92988,539.92988 0 0 0 -205.35467,-62.5956 c -6.32604,-0.62455 -12.6118,-1.71247 -18.93784,-2.47804 -4.02933,-0.96704 -8.05865,-2.15569 -12.18871,-1.18865 -65.3154,-1.79305 -129.80479,4.15021 -192.88391,21.87925 -47.586356,13.37736 -94.024356,30.03863 -135.264526,57.86114 -44.14129,29.81702 -69.94913,71.94364 -78.833804,124.60695 -1.45055,8.32056 1.08792,18.51476 -7.89748,24.76022 z"
         style="fill:#414343"
         inkscape:connector-curvature="0" />
      <path
         id="path5372"
         d="m -115.3644,667.42289 c 3.46522,-14.52573 3.60625,-29.51483 7.49455,-44.0607 14.384704,-55.36296 47.848274,-95.29359 97.630614,-121.94759 58.54613,-31.36832 121.182026,-50.78968 186.678746,-60.92343 40.75665,-6.3059 81.87593,-7.57514 123.07581,-6.24546 4.02932,2.01466 8.54217,-0.22161 12.61179,1.45056 87.85949,6.93044 171.60906,28.84998 245.78898,77.30264 54.39592,35.53867 82.80266,88.42359 84.35396,154.42398 l -124.90915,0 c -3.72712,-3.20332 -3.48536,-7.75646 -4.02932,-12.08798 a 82.903412,82.903412 0 0 0 -13.49825,-37.31158 c -19.38107,-28.48734 -51.99847,-28.04412 -70.39235,1.02748 a 89.692829,89.692829 0 0 0 -13.11546,36.46542 c -0.6044,4.51284 -0.48352,9.60994 -5.74179,11.9671 -3.72713,2.80038 -7.59529,0.10073 -11.34256,0.12088 q -135.44584,0.28205 -270.85139,0.16117 c -1.32968,0 -2.6795,0.20147 -4.02933,0.32235 -8.36085,2.6795 -8.58247,-4.02933 -10.4561,-8.96526 -2.53848,-13.11546 -4.89564,-26.37194 -12.47077,-37.77494 -9.186866,-13.84074 -20.146636,-24.8408 -38.701696,-24.17597 -13.69971,0.48352 -23.20892,7.8169 -30.92509,17.87007 -9.34804,12.20886 -14.00191,26.49283 -16.11731,41.60281 -0.54395,4.02932 -0.70513,8.05865 -4.02932,10.95977 -4.8956397,3.32419 -9.8315597,-0.14103 -14.7674897,-0.10074 -37.3518603,0.3022 -74.8044703,0.0202 -112.2570743,-0.0806 z"
         style="fill:#ffffff"
         inkscape:connector-curvature="0" />
      <path
         id="path5374"
         d="m 410.54343,667.48333 c 2.86083,-13.84074 4.02933,-28.00383 10.07332,-41.15958 9.91215,-21.57705 27.07708,-34.00753 47.44533,-33.20166 14.9891,0.6044 25.34447,9.34804 33.44342,20.79133 a 82.3796,82.3796 0 0 1 15.75467,53.42888 z"
         style="fill:#414343"
         inkscape:connector-curvature="0" />
      <path
         id="path5376"
         d="m 11.740744,667.62435 a 82.601213,82.601213 0 0 1 17.24552,-55.22193 c 22.16131,-28.70896 56.9747,-25.32432 75.429016,6.40663 a 97.187378,97.187378 0 0 1 12.89385,43.77865 c -0.10074,3.22346 0.76557,7.29308 -4.91578,5.54032 z"
         style="fill:#414343"
         inkscape:connector-curvature="0" />
      <g
         id="g5378"
         style="fill:#ef4748"
         transform="matrix(2.0146637,0,0,2.0146637,-267.02828,111.75848)">
        <path
           id="path5380"
           d="m 526.4,276 c 0.79,-7.65 0,-15.3 0.07,-23 a 63.9,63.9 0 0 1 -0.07,23 z"
           inkscape:connector-curvature="0" />
        <path
           id="path5382"
           d="m 1.1,255 q 0.12,10.47 0.25,20.94 C -0.94,269 0.19,262 1.1,255 Z"
           inkscape:connector-curvature="0" />
        <path
           id="path5384"
           d="m 2.12,241 a 15,15 0 0 1 -0.83,7 c -0.1,-2.38 -1.02,-4.85 0.83,-7 z"
           inkscape:connector-curvature="0" />
        <path
           id="path5386"
           d="m 611.54,11.9 0,-5.86 a 5.64,5.64 0 0 1 0,5.86 z"
           inkscape:connector-curvature="0" />
        <path
           id="path5388"
           d="m 526.28,247 c -0.92,-1.9 -0.69,-3.94 -0.74,-6 1.21,1.9 0.58,4 0.74,6 z"
           inkscape:connector-curvature="0" />
        <path
           id="path5390"
           d="m 525.28,237 a 7.85,7.85 0 0 1 -0.81,-5 c 1.05,1.54 1.61,3.15 0.81,5 z"
           inkscape:connector-curvature="0" />
        <path
           id="path5392"
           d="m 605.29,110 a 3.26,3.26 0 0 1 3,-0.89 c -0.79,1.03 -1.49,2.3 -3,0.89 z"
           inkscape:connector-curvature="0" />
        <path
           id="path5394"
           d="m 3.12,233 a 10.51,10.51 0 0 1 -0.83,5 c 0.1,-1.7 -0.39,-3.49 0.83,-5 z"
           inkscape:connector-curvature="0" />
        <path
           id="path5396"
           d="m 504.29,134 a 3.26,3.26 0 0 1 3,-0.89 c -0.79,1.03 -1.49,2.3 -3,0.89 z"
           inkscape:connector-curvature="0" />
        <path
           id="path5398"
           d="m 524.28,229 c -1.08,-1.15 -0.9,-2.57 -0.84,-4 a 3.08,3.08 0 0 1 0.84,4 z"
           inkscape:connector-curvature="0" />
        <path
           id="path5400"
           d="m 26.1,155 a 4.9,4.9 0 0 1 -1.82,3.6 3.65,3.65 0 0 1 1.82,-3.6 z"
           inkscape:connector-curvature="0" />
        <path
           id="path5402"
           d="m 538.29,125 a 3.25,3.25 0 0 1 3,-0.85 c -0.81,1.01 -1.52,2.26 -3,0.85 z"
           inkscape:connector-curvature="0" />
      </g>
      <path
         id="path5404"
         d="m 312.02638,435.69627 c -4.25094,0 -8.58247,0.64469 -12.6118,-1.45056 4.2308,0.18132 8.6832,-1.36997 12.6118,1.45056 z"
         style="fill:#a04647"
         inkscape:connector-curvature="0" />
    </g>
  </g>
  <g
     inkscape:groupmode="layer"
     id="layer4"
     inkscape:label="plus">
    <path
       style="fill:#f7f7f7;fill-opacity:1;fill-rule:evenodd;stroke:#b7adad;stroke-width:1px;stroke-linecap:butt;stroke-linejoin:miter;stroke-opacity:1"
       d="m 193.57143,165 20,0 0,30 30,0 0,20 -30,0 0,30 -20,0 0,-30 -30,0 0,-20 30,0 z"
       id="path6110"
       inkscape:connector-curvature="0" />
  </g>
</svg>
